<?xml version="1.0" encoding="UTF-8"?>
<svg id="Layer_1" xmlns="http://www.w3.org/2000/svg" viewBox="0 0 1920 390.08">
  <circle cx="637.87" cy="195.04" r="195.04"/>
  <circle cx="1081.5" cy="195.04" r="195.04"/>
  <path d="M1724.96,195.04c0,107.72,87.32,195.04,195.04,195.04V0c-107.71,0-195.04,87.32-195.04,195.04Z"/>
  <g>
    <path d="M195.04,195.04c0,107.72,87.32,195.04,195.04,195.04V0C282.36,0,195.04,87.32,195.04,195.04Z"/>
    <path d="M195.04,195.04C195.04,87.32,107.71,0,0,0v390.07c107.71,0,195.04-87.32,195.04-195.04Z"/>
  </g>
  <path d="M1329.3,0v390.07c107.72,0,195.04-87.32,195.04-195.04S1437.01,0,1329.3,0Z"/>
  <rect x="1577.09" y="0" width="95.92" height="390.07"/>
</svg>