<svg width="461" height="498" viewBox="0 0 461 498" fill="none" xmlns="http://www.w3.org/2000/svg">
<path d="M7.6 4H29.6V69.5H70.1V74.1H29.6V79.6H70.1V84.2H7.6V4ZM113.827 86.9C100.627 86.9 90.4599 83.4 83.3266 76.4C76.2599 69.4 72.7266 58.5667 72.7266 43.9C72.7266 29.2333 76.2599 18.4 83.3266 11.4C90.4599 4.4 100.627 0.899996 113.827 0.899996C127.027 0.899996 137.16 4.4 144.227 11.4C151.36 18.4 154.927 29.2333 154.927 43.9C154.927 58.5667 151.36 69.4 144.227 76.4C137.16 83.4 127.027 86.9 113.827 86.9ZM113.827 82.3C116.36 82.3 118.76 81.7333 121.027 80.6C123.36 79.5333 125.393 77.5667 127.127 74.7C128.86 71.7667 130.227 67.8333 131.227 62.9C132.293 57.9667 132.827 51.6333 132.827 43.9C132.827 36.2333 132.293 29.9333 131.227 25C130.227 20 128.86 16.0667 127.127 13.2C125.393 10.2667 123.36 8.26666 121.027 7.2C118.76 6.06666 116.36 5.5 113.827 5.5C111.293 5.5 108.86 6.06666 106.527 7.2C104.193 8.26666 102.16 10.2667 100.427 13.2C98.6932 16.0667 97.2932 20 96.2266 25C95.2266 29.9333 94.7266 36.2333 94.7266 43.9C94.7266 51.6333 95.2266 57.9667 96.2266 62.9C97.2932 67.8333 98.6932 71.7667 100.427 74.7C102.16 77.5667 104.193 79.5333 106.527 80.6C108.86 81.7333 111.293 82.3 113.827 82.3ZM203.061 47.8H243.361V51.9C243.361 58.3667 242.461 63.8333 240.661 68.3C238.861 72.7667 236.261 76.3667 232.861 79.1C229.528 81.8333 225.428 83.8 220.561 85C215.694 86.2667 210.194 86.9 204.061 86.9C190.861 86.9 180.694 83.4 173.561 76.4C166.494 69.4 162.961 58.5667 162.961 43.9C162.961 29.2333 166.494 18.4 173.561 11.4C180.694 4.4 190.861 0.899996 204.061 0.899996C209.528 0.899996 214.561 1.5 219.161 2.7C223.828 3.83333 227.861 5.6 231.261 7.99999C234.728 10.4 237.494 13.4667 239.561 17.2C241.628 20.8667 242.828 25.2333 243.161 30.3H220.461C220.528 25.2333 220.128 21.0333 219.261 17.7C218.394 14.3667 217.161 11.7333 215.561 9.79999C214.028 7.86666 212.261 6.53333 210.261 5.8C208.261 5 206.194 4.6 204.061 4.6C201.528 4.6 199.094 5.2 196.761 6.4C194.428 7.53333 192.394 9.56666 190.661 12.5C188.928 15.4333 187.528 19.4333 186.461 24.5C185.461 29.5667 184.961 36.0333 184.961 43.9C184.961 51.7667 185.461 58.2333 186.461 63.3C187.528 68.3667 188.928 72.4 190.661 75.4C192.394 78.3333 194.428 80.3667 196.761 81.5C199.094 82.6333 201.528 83.2 204.061 83.2C206.461 83.2 208.694 82.8 210.761 82C212.828 81.2 214.628 79.6667 216.161 77.4C217.694 75.2 218.894 72.1 219.761 68.1C220.694 64.1 221.161 58.8667 221.161 52.4H203.061V47.8ZM203.061 37.6H243.361V42.2H203.061V37.6ZM255.842 4H277.842V84.2H255.842V4ZM295.002 4H317.002L341.902 69.7V4H364.002V84.2H341.902L317.002 18.5V84.2H295.002V4ZM7.6 141H53.7C60.9667 141 66.7333 143.067 71 147.2C75.3333 151.333 77.5 157.433 77.5 165.5C77.5 173.5 75.3333 179.567 71 183.7C66.7333 187.833 60.9667 189.9 53.7 189.9H29.6V221.2H7.6V141ZM41.7 185.3C44.3667 185.3 46.5667 184.833 48.3 183.9C50.0333 182.9 51.4333 181.533 52.5 179.8C53.5667 178.067 54.3 176 54.7 173.6C55.1667 171.133 55.4 168.433 55.4 165.5C55.4 162.5 55.1667 159.8 54.7 157.4C54.3 154.933 53.5667 152.833 52.5 151.1C51.4333 149.367 50.0333 148.033 48.3 147.1C46.5667 146.1 44.3667 145.6 41.7 145.6H29.6V185.3H41.7ZM108.409 141H133.309L160.909 221.2H137.909L134.809 211.3H106.909L103.809 221.2H80.8086L108.409 141ZM130.309 196.6L120.909 166.3L111.409 196.6H130.309ZM133.409 206.7L131.709 201.2H110.009L108.309 206.7H133.409ZM204.038 184.8H244.338V188.9C244.338 195.367 243.438 200.833 241.638 205.3C239.838 209.767 237.238 213.367 233.838 216.1C230.504 218.833 226.404 220.8 221.538 222C216.671 223.267 211.171 223.9 205.038 223.9C191.838 223.9 181.671 220.4 174.538 213.4C167.471 206.4 163.938 195.567 163.938 180.9C163.938 166.233 167.471 155.4 174.538 148.4C181.671 141.4 191.838 137.9 205.038 137.9C210.504 137.9 215.538 138.5 220.138 139.7C224.804 140.833 228.838 142.6 232.238 145C235.704 147.4 238.471 150.467 240.538 154.2C242.604 157.867 243.804 162.233 244.138 167.3H221.438C221.504 162.233 221.104 158.033 220.238 154.7C219.371 151.367 218.138 148.733 216.538 146.8C215.004 144.867 213.238 143.533 211.238 142.8C209.238 142 207.171 141.6 205.038 141.6C202.504 141.6 200.071 142.2 197.738 143.4C195.404 144.533 193.371 146.567 191.638 149.5C189.904 152.433 188.504 156.433 187.438 161.5C186.438 166.567 185.938 173.033 185.938 180.9C185.938 188.767 186.438 195.233 187.438 200.3C188.504 205.367 189.904 209.4 191.638 212.4C193.371 215.333 195.404 217.367 197.738 218.5C200.071 219.633 202.504 220.2 205.038 220.2C207.438 220.2 209.671 219.8 211.738 219C213.804 218.2 215.604 216.667 217.138 214.4C218.671 212.2 219.871 209.1 220.738 205.1C221.671 201.1 222.138 195.867 222.138 189.4H204.038V184.8ZM204.038 174.6H244.338V179.2H204.038V174.6ZM256.819 141H316.619V145.6H278.819V158.5H316.619V163.1H278.819V177.3H316.619V181.9H278.819V196.4H316.619V201H278.819V216.6H316.619V221.2H256.819V141ZM349.429 161.4C349.429 158.2 350.362 155.667 352.229 153.8C354.096 151.933 356.629 151 359.829 151C363.029 151 365.562 151.933 367.429 153.8C369.296 155.667 370.229 158.2 370.229 161.4C370.229 164.6 369.296 167.133 367.429 169C365.562 170.867 363.029 171.8 359.829 171.8C356.629 171.8 354.096 170.867 352.229 169C350.362 167.133 349.429 164.6 349.429 161.4ZM349.429 198.9C349.429 195.633 350.362 193.067 352.229 191.2C354.096 189.333 356.629 188.4 359.829 188.4C363.029 188.4 365.562 189.333 367.429 191.2C369.296 193.067 370.229 195.633 370.229 198.9C370.229 202.033 369.296 204.567 367.429 206.5C365.562 208.367 363.029 209.3 359.829 209.3C356.629 209.3 354.096 208.367 352.229 206.5C350.362 204.567 349.429 202.033 349.429 198.9ZM35.2 495.2C27.2667 495.2 21.1 493.533 16.7 490.2C12.3667 486.933 10.2 482.567 10.2 477.1V444.6H0.2V440H10.2V421.7H31.4V440H46.7V444.6H31.4V479.8C31.4 483.4 32.1667 486.1 33.7 487.9C35.2333 489.7 37.1667 490.6 39.5 490.6H48.6V495.2H35.2ZM53.2813 468.2C53.2813 458.8 56.1479 451.5 61.8813 446.3C67.6813 441.1 75.8813 438.5 86.4813 438.5C97.0813 438.5 105.248 441.1 110.981 446.3C116.781 451.5 119.681 458.8 119.681 468.2C119.681 477.6 116.781 484.9 110.981 490.1C105.248 495.3 97.0813 497.9 86.4813 497.9C75.8813 497.9 67.6813 495.3 61.8813 490.1C56.1479 484.9 53.2813 477.6 53.2813 468.2ZM86.4813 493.7C88.5479 493.7 90.3146 493.233 91.7813 492.3C93.3146 491.367 94.5813 489.867 95.5813 487.8C96.5813 485.733 97.3146 483.1 97.7813 479.9C98.2479 476.633 98.4813 472.733 98.4813 468.2C98.4813 459.133 97.5146 452.633 95.5813 448.7C93.6479 444.7 90.6146 442.7 86.4813 442.7C82.3479 442.7 79.3146 444.7 77.3813 448.7C75.4479 452.633 74.4813 459.133 74.4813 468.2C74.4813 472.733 74.7146 476.633 75.1813 479.9C75.6479 483.1 76.3813 485.733 77.3813 487.8C78.3813 489.867 79.6146 491.367 81.0813 492.3C82.6146 493.233 84.4146 493.7 86.4813 493.7ZM149.266 415H171.366L183.566 478.6L197.666 422.3H203.166L217.266 478.6L229.466 415H251.566L235.266 495.2H215.266L200.466 436.3L185.666 495.2H165.566L149.266 415ZM260.713 440H281.913V447.6C283.78 444.933 285.88 443 288.213 441.8C290.613 440.6 293.513 440 296.913 440H302.413V444.6H297.613C293.813 444.6 290.58 445.933 287.913 448.6C285.247 451.267 283.247 454.9 281.913 459.5V495.2H260.713V440ZM310.79 421.2C310.79 417.867 311.823 415.233 313.89 413.3C316.023 411.3 318.823 410.3 322.29 410.3C325.69 410.3 328.457 411.3 330.59 413.3C332.723 415.233 333.79 417.867 333.79 421.2C333.79 424.467 332.723 427.1 330.59 429.1C328.457 431.1 325.69 432.1 322.29 432.1C318.823 432.1 316.023 431.1 313.89 429.1C311.823 427.1 310.79 424.467 310.79 421.2ZM311.69 440H332.89V495.2H311.69V440ZM377.192 495.2C369.259 495.2 363.092 493.533 358.692 490.2C354.359 486.933 352.192 482.567 352.192 477.1V444.6H342.192V440H352.192V421.7H373.392V440H388.692V444.6H373.392V479.8C373.392 483.4 374.159 486.1 375.692 487.9C377.226 489.7 379.159 490.6 381.492 490.6H390.592V495.2H377.192ZM460.273 480.1C459.74 486.167 456.707 490.633 451.173 493.5C445.707 496.433 437.907 497.9 427.773 497.9C417.173 497.9 409.107 495.2 403.573 489.8C398.04 484.4 395.273 476.733 395.273 466.8C395.273 457.6 398.073 450.6 403.673 445.8C409.34 440.933 417.44 438.5 427.973 438.5C433.04 438.5 437.607 439.133 441.673 440.4C445.74 441.6 449.173 443.4 451.973 445.8C454.84 448.133 457.007 451.067 458.473 454.6C460.007 458.133 460.773 462.2 460.773 466.8V469.5H416.473C416.54 477.9 417.44 484.067 419.173 488C420.907 491.933 423.773 493.9 427.773 493.9C431.44 493.9 434.24 492.733 436.173 490.4C438.107 488.133 439.073 484.7 439.073 480.1H460.273ZM439.573 464.9C439.573 460.7 439.34 457.167 438.873 454.3C438.407 451.433 437.707 449.133 436.773 447.4C435.84 445.667 434.64 444.433 433.173 443.7C431.707 442.9 429.973 442.5 427.973 442.5C425.973 442.5 424.24 442.9 422.773 443.7C421.307 444.433 420.107 445.667 419.173 447.4C418.24 449.133 417.54 451.433 417.073 454.3C416.607 457.167 416.373 460.7 416.373 464.9H439.573Z" fill="black"/>
<path d="M43.1 321.8H83.4V325.9C83.4 332.367 82.5 337.833 80.7 342.3C78.9 346.767 76.3 350.367 72.9 353.1C69.5667 355.833 65.4667 357.8 60.6 359C55.7333 360.267 50.2333 360.9 44.1 360.9C30.9 360.9 20.7333 357.4 13.6 350.4C6.53333 343.4 3 332.567 3 317.9C3 303.233 6.53333 292.4 13.6 285.4C20.7333 278.4 30.9 274.9 44.1 274.9C49.5667 274.9 54.6 275.5 59.2 276.7C63.8667 277.833 67.9 279.6 71.3 282C74.7667 284.4 77.5333 287.467 79.6 291.2C81.6667 294.867 82.8667 299.233 83.2 304.3H60.5C60.5667 299.233 60.1667 295.033 59.3 291.7C58.4333 288.367 57.2 285.733 55.6 283.8C54.0667 281.867 52.3 280.533 50.3 279.8C48.3 279 46.2333 278.6 44.1 278.6C41.5667 278.6 39.1333 279.2 36.8 280.4C34.4667 281.533 32.4333 283.567 30.7 286.5C28.9667 289.433 27.5667 293.433 26.5 298.5C25.5 303.567 25 310.033 25 317.9C25 325.767 25.5 332.233 26.5 337.3C27.5667 342.367 28.9667 346.4 30.7 349.4C32.4333 352.333 34.4667 354.367 36.8 355.5C39.1333 356.633 41.5667 357.2 44.1 357.2C46.5 357.2 48.7333 356.8 50.8 356C52.8667 355.2 54.6667 353.667 56.2 351.4C57.7333 349.2 58.9333 346.1 59.8 342.1C60.7333 338.1 61.2 332.867 61.2 326.4H43.1V321.8ZM43.1 311.6H83.4V316.2H43.1V311.6ZM132.381 360.9C119.181 360.9 109.015 357.4 101.881 350.4C94.8146 343.4 91.2813 332.567 91.2813 317.9C91.2813 303.233 94.8146 292.4 101.881 285.4C109.015 278.4 119.181 274.9 132.381 274.9C145.581 274.9 155.715 278.4 162.781 285.4C169.915 292.4 173.481 303.233 173.481 317.9C173.481 332.567 169.915 343.4 162.781 350.4C155.715 357.4 145.581 360.9 132.381 360.9ZM132.381 356.3C134.915 356.3 137.315 355.733 139.581 354.6C141.915 353.533 143.948 351.567 145.681 348.7C147.415 345.767 148.781 341.833 149.781 336.9C150.848 331.967 151.381 325.633 151.381 317.9C151.381 310.233 150.848 303.933 149.781 299C148.781 294 147.415 290.067 145.681 287.2C143.948 284.267 141.915 282.267 139.581 281.2C137.315 280.067 134.915 279.5 132.381 279.5C129.848 279.5 127.415 280.067 125.081 281.2C122.748 282.267 120.715 284.267 118.981 287.2C117.248 290.067 115.848 294 114.781 299C113.781 303.933 113.281 310.233 113.281 317.9C113.281 325.633 113.781 331.967 114.781 336.9C115.848 341.833 117.248 345.767 118.981 348.7C120.715 351.567 122.748 353.533 125.081 354.6C127.415 355.733 129.848 356.3 132.381 356.3Z" fill="#22C46F"/>
</svg>
